<svg width="512" height="512" viewBox="0 0 512 512" fill="none" xmlns="http://www.w3.org/2000/svg">
<g clip-path="url(#clip0_113_3)">
<path d="M64 99.2V256C64 412.8 256 480 256 480C256 480 448 412.8 448 256V99.2L256 32L64 99.2Z" stroke="url(#paint0_linear_113_3)" stroke-width="20" stroke-linecap="square"/>
<path d="M108.365 131.616V256.482C108.365 381.348 255.503 434.863 255.503 434.863C255.503 434.863 402.641 381.348 402.641 256.482V131.616L255.503 78.1017L108.365 131.616Z" fill="url(#paint1_linear_113_3)"/>
<path d="M57.604 303.901C50.1444 312.677 46.7016 319.72 46.1121 325.237C45.5481 330.515 47.5645 334.676 51.9581 338.08C56.4954 341.595 63.5603 344.266 72.8284 346.062C82.0472 347.848 93.2043 348.722 105.715 348.814C155.81 349.181 226.406 337.001 277.677 322.301C329.137 307.547 397.39 286.933 441.588 265.48C452.624 260.123 462.086 254.749 469.383 249.443C476.728 244.102 481.65 238.993 483.916 234.242C485.031 231.905 485.476 229.712 485.308 227.633C485.141 225.563 484.353 223.445 482.75 221.262C479.482 216.812 472.895 212.197 461.857 207.676L463.323 202.954C479.959 206.776 491.922 211.257 499.719 216.365C507.555 221.498 511.568 227.553 511.265 234.421C510.973 241.042 506.67 247.588 500.045 253.89C493.352 260.256 483.911 266.73 472.541 273.188C427.102 298.994 349.003 325.545 284.361 344.079C219.508 362.673 137.098 372.405 83.3356 367.65C69.8818 366.46 58.1085 364.355 48.8072 361.198C39.5806 358.067 32.3879 353.769 28.6376 347.913C24.7407 341.829 24.9055 334.646 29.1125 326.735C33.2636 318.93 41.4514 310.16 54.1065 300.316L57.604 303.901Z" fill="url(#paint2_linear_113_3)" stroke="white" stroke-width="5"/>
<g filter="url(#filter0_i_113_3)">
<ellipse cx="258.485" cy="235.751" rx="59.6505" ry="58.3352" fill="white"/>
</g>
<path d="M249.14 150.657C273.059 148.573 294.158 155.104 312.282 170.237C330.406 185.371 340.551 204.957 342.674 228.844L342.751 229.748C343.496 239.076 342.752 248.046 340.504 256.642C338.398 264.692 335.295 272.029 331.185 278.639L407.735 342.625C410.856 345.234 412.577 348.754 412.957 352.974C413.336 357.193 412.27 360.956 409.664 364.064C407.057 367.171 403.536 368.878 399.312 369.246C395.088 369.614 391.316 368.543 388.195 365.934L311.64 301.943C305.843 307.145 299.151 311.486 291.581 314.97C283.239 318.81 274.223 321.143 264.552 321.985C240.617 324.071 219.522 317.54 201.423 302.403C183.324 287.267 173.176 267.683 171.019 243.8C168.861 219.916 175.356 198.879 190.489 180.847C205.621 162.817 225.221 152.741 249.14 150.657ZM251.888 181.229C236.497 182.553 223.995 189.028 214.238 200.705C204.477 212.387 200.289 225.816 201.642 241.135C202.995 256.448 209.512 268.943 221.256 278.76C233.001 288.577 246.465 292.783 261.797 291.414L261.802 291.414C277.177 290.074 289.687 283.602 299.472 271.945C309.257 260.288 313.44 246.861 312.051 231.513C310.662 216.163 304.146 203.671 292.45 193.895C280.754 184.118 267.284 179.904 251.888 181.229Z" fill="url(#paint3_linear_113_3)" stroke="white" stroke-width="5"/>
<g clip-path="url(#clip1_113_3)">
<path d="M397.172 125.07L397.185 127.282L397.214 132.368C397.275 132.414 397.337 132.459 397.397 132.507C397.413 132.52 397.429 132.533 397.445 132.546L402.189 131.133L404.335 130.493L405.205 132.557L409.441 142.595L410.284 144.589L408.43 145.707L404.089 148.325L404.048 148.678L407.626 152.182L409.174 153.697L407.895 155.444L401.465 164.239L400.14 166.053L398.195 164.928L393.941 162.465C393.907 162.481 393.872 162.498 393.837 162.514C393.791 162.535 393.743 162.554 393.697 162.574L392.496 167.534L391.975 169.685L376.912 167.931L376.9 165.717L376.871 160.63C376.81 160.583 376.747 160.538 376.687 160.49C376.671 160.478 376.656 160.465 376.64 160.452L371.897 161.867L369.751 162.507L368.879 160.443L364.643 150.406L363.802 148.411L365.655 147.293L369.997 144.673L370.033 144.358L366.41 140.812L364.863 139.298L366.141 137.55L372.571 128.755L373.893 126.946L375.835 128.063L380.138 130.536C380.175 130.519 380.211 130.502 380.248 130.486C380.294 130.465 380.341 130.446 380.388 130.425L381.589 125.466L382.11 123.315L397.172 125.07ZM387.658 142.056C386.416 141.911 385.407 142.21 384.471 142.976C383.515 143.759 382.984 144.725 382.835 146.009C382.687 147.294 382.983 148.357 383.733 149.339C384.466 150.299 385.378 150.821 386.62 150.966C387.819 151.106 388.828 150.816 389.794 150.033C390.763 149.249 391.296 148.288 391.444 147.012C391.593 145.737 391.295 144.679 390.533 143.693C389.772 142.71 388.857 142.195 387.658 142.056Z" fill="url(#paint4_linear_113_3)" stroke="white" stroke-width="5"/>
</g>
<g clip-path="url(#clip2_113_3)">
<path d="M407.672 161.382L408.814 163.275L413.363 170.822C413.714 170.843 414.063 170.872 414.41 170.918C414.7 170.956 414.989 171.001 415.278 171.049L421.213 164.66L422.726 163.029L424.521 164.343L438.5 174.576L440.26 175.865L439.221 177.784L435.024 185.531L435.835 187.349L444.309 189.375L446.432 189.882L446.216 192.054L444.5 209.292L444.278 211.512L442.048 211.545L433.393 211.667C433.221 211.93 433.046 212.193 432.863 212.451C432.677 212.713 432.485 212.965 432.29 213.213L434.879 221.667L435.526 223.78L415.793 232.589L414.652 230.696L410.101 223.148C409.75 223.127 409.401 223.098 409.054 223.051C408.765 223.012 408.477 222.967 408.188 222.919L402.253 229.311L400.739 230.941L398.944 229.627L384.965 219.395L383.205 218.106L384.244 216.187L388.441 208.439L387.654 206.676L379.085 204.628L376.962 204.12L377.178 201.949L378.894 184.711L379.114 182.497L381.339 182.459L390.068 182.307C390.241 182.042 390.418 181.78 390.602 181.52C390.788 181.259 390.98 181.005 391.174 180.758L388.587 172.304L387.939 170.19L407.672 161.382ZM408.376 189.084C406.174 190.066 404.734 191.606 403.926 193.798C403.11 196.013 403.183 198.152 404.17 200.359C405.158 202.568 406.704 204.051 408.897 204.924C411.066 205.786 413.172 205.743 415.374 204.76C417.517 203.803 418.957 202.272 419.792 200.048C420.627 197.822 420.562 195.682 419.58 193.483C418.598 191.283 417.049 189.805 414.834 188.941C412.621 188.077 410.52 188.127 408.376 189.084Z" fill="url(#paint5_linear_113_3)" stroke="white" stroke-width="5"/>
</g>
<path d="M359.064 141.067C359.343 138.625 359.347 138.583 359.347 138.583H359.345C359.344 138.582 359.342 138.582 359.34 138.582C359.336 138.581 359.332 138.581 359.326 138.581C359.315 138.579 359.3 138.578 359.28 138.576C359.241 138.571 359.185 138.565 359.113 138.558C358.97 138.544 358.765 138.525 358.503 138.502C357.978 138.458 357.226 138.404 356.297 138.359C354.442 138.27 351.865 138.22 348.977 138.381C343.315 138.697 335.986 139.839 330.679 143.485C329.2 144.501 326.893 146.896 324.17 149.965C321.362 153.131 317.889 157.275 314.008 162.04C306.242 171.573 296.784 183.664 287.633 195.537C278.479 207.412 269.622 219.084 263.054 227.786C259.769 232.137 257.057 235.746 255.165 238.268C254.965 238.535 254.774 238.79 254.592 239.033C254.068 238.03 253.462 236.871 252.808 235.636C250.78 231.812 248.267 227.185 246.418 224.16C244.637 221.246 242.773 217.986 241.349 215.446C240.638 214.178 240.04 213.093 239.619 212.326C239.409 211.942 239.243 211.638 239.13 211.43C239.074 211.327 239.031 211.247 239.002 211.194C238.987 211.167 238.976 211.147 238.969 211.133C238.965 211.127 238.963 211.122 238.961 211.119C238.96 211.117 238.959 211.115 238.959 211.115L238.958 211.114L237.361 208.156L234.988 210.537L223.907 221.648L222.164 223.396L223.891 225.161V225.162L223.909 225.18C223.922 225.194 223.942 225.214 223.968 225.241C224.02 225.294 224.096 225.372 224.194 225.473C224.391 225.675 224.673 225.968 225.017 226.325C225.705 227.039 226.636 228.013 227.608 229.052C229.641 231.223 231.598 233.409 232.158 234.264C232.854 235.326 237.829 243.129 242.649 250.698C245.055 254.475 247.417 258.185 249.177 260.951C250.057 262.334 250.786 263.481 251.296 264.282C251.551 264.682 251.751 264.997 251.887 265.21C251.955 265.317 252.007 265.399 252.042 265.455C252.059 265.482 252.073 265.503 252.082 265.517C252.086 265.524 252.09 265.529 252.092 265.533C252.093 265.534 252.094 265.536 252.095 265.537V265.538L254.205 264.196L252.096 265.538L254.256 268.934L256.343 265.492V265.491C256.343 265.49 256.345 265.489 256.346 265.487C256.348 265.483 256.351 265.478 256.355 265.471C256.364 265.457 256.376 265.436 256.394 265.408C256.428 265.351 256.48 265.265 256.549 265.153C256.686 264.929 256.89 264.597 257.153 264.169C257.681 263.313 258.45 262.071 259.415 260.537C261.346 257.466 264.057 253.224 267.178 248.535C273.446 239.116 281.274 228.037 287.732 220.997C294.323 213.812 312.605 194.264 329.253 176.499C337.574 167.619 345.482 159.189 351.311 152.979C354.225 149.874 356.619 147.323 358.284 145.549C359.117 144.662 359.768 143.97 360.21 143.499C360.431 143.263 360.601 143.083 360.715 142.961C360.772 142.901 360.815 142.855 360.844 142.825C360.858 142.809 360.869 142.797 360.876 142.79C360.879 142.786 360.882 142.784 360.884 142.782C360.885 142.781 360.885 142.779 360.886 142.779L359.064 141.067ZM359.064 141.067L360.887 142.779L364.298 139.147L359.348 138.583L359.064 141.067Z" fill="url(#paint6_linear_113_3)" stroke="white" stroke-width="5"/>
</g>
<defs>
<filter id="filter0_i_113_3" x="198.835" y="177.416" width="129.301" height="126.67" filterUnits="userSpaceOnUse" color-interpolation-filters="sRGB">
<feFlood flood-opacity="0" result="BackgroundImageFix"/>
<feBlend mode="normal" in="SourceGraphic" in2="BackgroundImageFix" result="shape"/>
<feColorMatrix in="SourceAlpha" type="matrix" values="0 0 0 0 0 0 0 0 0 0 0 0 0 0 0 0 0 0 127 0" result="hardAlpha"/>
<feOffset dx="10" dy="20"/>
<feGaussianBlur stdDeviation="5"/>
<feComposite in2="hardAlpha" operator="arithmetic" k2="-1" k3="1"/>
<feColorMatrix type="matrix" values="0 0 0 0 0 0 0 0 0 0 0 0 0 0 0 0 0 0 0.1 0"/>
<feBlend mode="normal" in2="shape" result="effect1_innerShadow_113_3"/>
</filter>
<linearGradient id="paint0_linear_113_3" x1="256" y1="32" x2="256" y2="480" gradientUnits="userSpaceOnUse">
<stop stop-color="#4571AE"/>
<stop offset="1" stop-color="#042E69"/>
</linearGradient>
<linearGradient id="paint1_linear_113_3" x1="255.503" y1="78.1017" x2="255.503" y2="434.863" gradientUnits="userSpaceOnUse">
<stop stop-color="#4571AE"/>
<stop offset="1" stop-color="#042E69"/>
</linearGradient>
<linearGradient id="paint2_linear_113_3" x1="255.955" y1="244.859" x2="283.711" y2="341.664" gradientUnits="userSpaceOnUse">
<stop stop-color="#4571AE"/>
<stop offset="1" stop-color="#042E69"/>
</linearGradient>
<linearGradient id="paint3_linear_113_3" x1="278.692" y1="150.592" x2="298.29" y2="375.538" gradientUnits="userSpaceOnUse">
<stop stop-color="#4571AE"/>
<stop offset="1" stop-color="#042E69"/>
</linearGradient>
<linearGradient id="paint4_linear_113_3" x1="389.352" y1="126.676" x2="384.733" y2="166.324" gradientUnits="userSpaceOnUse">
<stop stop-color="#4571AE"/>
<stop offset="1" stop-color="#042E69"/>
</linearGradient>
<linearGradient id="paint5_linear_113_3" x1="398.825" y1="168.069" x2="424.64" y2="225.902" gradientUnits="userSpaceOnUse">
<stop stop-color="#4571AE"/>
<stop offset="1" stop-color="#042E69"/>
</linearGradient>
<linearGradient id="paint6_linear_113_3" x1="292.371" y1="140.776" x2="292.371" y2="264.196" gradientUnits="userSpaceOnUse">
<stop stop-color="#4571AE"/>
<stop offset="1" stop-color="#042E69"/>
</linearGradient>
<clipPath id="clip0_113_3">
<rect width="512" height="512" fill="white"/>
</clipPath>
<clipPath id="clip1_113_3">
<rect width="46.8572" height="47.8999" fill="white" transform="translate(366.542 120) rotate(6.64458)"/>
</clipPath>
<clipPath id="clip2_113_3">
<rect width="75" height="76" fill="white" transform="translate(362 177.571) rotate(-24.0551)"/>
</clipPath>
</defs>
</svg>
